<?xml version="1.0" encoding="utf-8"?>
<!-- Generator: Adobe Illustrator 16.0.0, SVG Export Plug-In . SVG Version: 6.00 Build 0)  -->
<!DOCTYPE svg PUBLIC "-//W3C//DTD SVG 1.1//EN" "http://www.w3.org/Graphics/SVG/1.1/DTD/svg11.dtd">
<svg version="1.1" id="Calque_1" xmlns="http://www.w3.org/2000/svg" xmlns:xlink="http://www.w3.org/1999/xlink" x="0px" y="0px"
	 width="141.7px" height="141.7px" viewBox="0 0 141.7 141.7" enable-background="new 0 0 141.7 141.7" xml:space="preserve">
<g>
	<defs>
		<rect id="SVGID_1_" width="141.7" height="141.7"/>
	</defs>
	<clipPath id="SVGID_2_">
		<use xlink:href="#SVGID_1_"  overflow="visible"/>
	</clipPath>
	<path clip-path="url(#SVGID_2_)" fill="#FFFFFF" d="M20.8,80.8c0.3,0.301,0.6,0.7,0.7,1.2l4.9,16.699L31.3,82
		c0.1-0.5,0.4-0.899,0.7-1.2c0.3-0.3,0.7-0.399,1.3-0.399c0.5,0,1,0.2,1.4,0.5c0.4,0.299,0.6,0.7,0.7,1.2l3.4,20.8l-2.7,0.5
		l-2.8-19.5l-5.5,18.6h-2.7l-5.5-18.6l-2.7,18.299c-0.1,0.401-0.2,0.701-0.5,0.901c-0.3,0.199-0.6,0.3-1,0.3s-0.7-0.101-0.9-0.3
		c-0.3-0.2-0.4-0.5-0.4-0.901v-0.5l3.3-19.599c0.1-0.5,0.3-0.901,0.7-1.2c0.4-0.3,0.8-0.5,1.4-0.5C20.1,80.4,20.5,80.601,20.8,80.8"
		/>
	<path clip-path="url(#SVGID_2_)" fill="#FFFFFF" d="M50.7,80.8c0.3,0.301,0.5,0.7,0.7,1.301l7.9,20.6l-2.7,0.8l-2-5.2H44.3
		l-1.6,4.2c-0.1,0.3-0.3,0.5-0.5,0.7c-0.2,0.199-0.5,0.3-0.8,0.3c-0.4,0-0.7-0.101-0.9-0.399c-0.2-0.301-0.4-0.601-0.4-0.9
		c0-0.2,0.1-0.5,0.2-0.801L47.5,82c0.2-0.399,0.4-0.8,0.7-1.2c0.3-0.3,0.7-0.5,1.2-0.5C50,80.399,50.4,80.601,50.7,80.8 M53.9,96
		l-4.4-12.3L45,96H53.9z"/>
	<path clip-path="url(#SVGID_2_)" fill="#FFFFFF" d="M61.1,81.7c0-0.4,0.1-0.7,0.4-0.9c0.3-0.199,0.6-0.399,0.9-0.399
		c0.4,0,0.7,0.1,1,0.399c0.3,0.301,0.4,0.601,0.4,1v8.4L74.1,80.5l1.9,1.8L66.3,91.4l10.2,9.899c0.3,0.301,0.5,0.7,0.5,1.101
		c0,0.399-0.1,0.6-0.4,0.899c-0.3,0.301-0.5,0.301-0.899,0.301c-0.4,0-0.8-0.2-1.101-0.5L63.8,92.4v10.8h-2.7V81.7z"/>
	<path clip-path="url(#SVGID_2_)" fill="#FFFFFF" d="M79.4,81.8c0-0.399,0.1-0.699,0.399-1c0.3-0.3,0.601-0.399,1-0.399
		c0.4,0,0.7,0.1,0.9,0.399c0.2,0.301,0.399,0.601,0.399,1v21.399H79.4V81.8z"/>
	<path clip-path="url(#SVGID_2_)" fill="#FFFFFF" d="M87,81.8c0-0.399,0.1-0.699,0.4-1c0.3-0.3,0.6-0.399,1-0.399
		c0.5,0,0.899,0.2,1.1,0.6l12.1,17.601V81.8c0-0.399,0.101-0.699,0.4-1c0.3-0.3,0.6-0.399,0.9-0.399c0.399,0,0.699,0.1,1,0.399
		c0.3,0.301,0.399,0.601,0.399,1v20.399c0,0.401-0.1,0.701-0.399,1c-0.301,0.301-0.601,0.401-1,0.401c-0.5,0-0.9-0.2-1.101-0.601
		L89.7,85.3v17.899H87V81.8z"/>
	<path clip-path="url(#SVGID_2_)" fill="#FFFFFF" d="M117.4,80.8c0.3,0.301,0.5,0.7,0.699,1.301l7.9,20.6l-2.7,0.8l-2-5.2H111
		l-1.6,4.2c-0.101,0.3-0.301,0.5-0.5,0.7c-0.2,0.199-0.5,0.3-0.801,0.3c-0.399,0-0.699-0.101-0.899-0.399
		c-0.2-0.301-0.4-0.601-0.4-0.9c0-0.2,0.101-0.5,0.2-0.801L114.2,82c0.2-0.399,0.399-0.8,0.7-1.2c0.3-0.3,0.699-0.5,1.199-0.5
		C116.7,80.399,117.1,80.601,117.4,80.8 M120.6,96L116.2,83.7L111.7,96H120.6z"/>
	<path clip-path="url(#SVGID_2_)" fill="#FFFFFF" d="M27.3,129.9c-0.3,0.398-0.6,0.8-1,1.1c-0.4,0.4-0.8,0.601-1.3,0.9
		c-0.5,0.2-1,0.398-1.5,0.6c-0.5,0.2-1.1,0.299-1.6,0.299c-0.5,0.102-1.1,0.102-1.5,0.102c-1.9,0-3.6-0.4-5.2-1.2
		c-1.5-0.8-2.8-2-3.7-3.5c-0.7-1-1.2-2.1-1.6-3.3s-0.6-2.4-0.6-3.602c0-1.5,0.2-2.898,0.7-4.198c0.5-1.302,1.1-2.5,2-3.5
		c0.8-1,1.9-1.9,3.1-2.601c1.2-0.699,2.5-1.1,4-1.199h0.7c0.6,0,1.2,0.1,1.9,0.199c0.7,0.101,1.4,0.301,2,0.601
		c0.7,0.3,1.3,0.5,1.9,0.899c0.6,0.301,1.1,0.7,1.5,1.101c0.1,0.1,0.2,0.198,0.3,0.399c0.1,0.101,0,0.301,0,0.4l-1.6,3.3
		c-0.1,0.2-0.4,0.3-0.6,0.4c-0.3,0-0.5,0-0.8-0.101c-0.6-0.5-1.2-0.899-1.9-1.199c-0.6-0.301-1.3-0.5-2-0.5c-0.2,0-0.4,0-0.7,0.1
		c-0.6,0.1-1.2,0.4-1.7,0.7c-0.5,0.399-0.9,0.8-1.3,1.3c-0.3,0.5-0.6,1.1-0.8,1.8c-0.2,0.7-0.3,1.4-0.3,2.101
		c0,0.8,0.1,1.5,0.3,2.199c0.2,0.7,0.4,1.4,0.8,1.9c0.4,0.6,0.8,1,1.4,1.3s1.2,0.5,1.9,0.5c0.5,0,1.1-0.1,1.5-0.3
		c0.5-0.2,0.9-0.4,1.3-0.5c0.3-0.2,0.7-0.3,1-0.4c0.3-0.1,0.7-0.199,1-0.199c0.8,0,1.5,0.199,2,0.699c0.6,0.5,0.8,1.101,0.8,1.9
		C27.7,129.101,27.6,129.5,27.3,129.9"/>
	<path clip-path="url(#SVGID_2_)" fill="#FFFFFF" d="M49.2,125.8c-0.5,1.4-1.3,2.601-2.3,3.7s-2.1,1.9-3.4,2.5
		c-1.3,0.6-2.8,0.9-4.4,0.9S36,132.6,34.7,132s-2.5-1.5-3.4-2.5c-1-1.1-1.7-2.3-2.3-3.7c-0.5-1.399-0.8-2.899-0.8-4.399
		c0-1.601,0.3-3,0.8-4.4c0.5-1.399,1.3-2.6,2.3-3.7c1-1.1,2.1-1.899,3.4-2.5c1.3-0.6,2.8-0.899,4.4-0.899s3,0.3,4.4,0.899
		c1.3,0.601,2.5,1.5,3.4,2.5c1,1.101,1.7,2.301,2.3,3.7c0.5,1.4,0.8,2.9,0.8,4.4S49.7,124.4,49.2,125.8 M43.2,119.2
		c-0.2-0.8-0.4-1.4-0.8-2c-0.4-0.6-0.8-1.1-1.4-1.4c-0.6-0.399-1.2-0.5-2-0.5c-0.8,0-1.4,0.2-1.9,0.5c-0.5,0.4-1,0.801-1.3,1.4
		c-0.3,0.6-0.6,1.2-0.8,2c-0.2,0.7-0.3,1.5-0.3,2.2c0,0.8,0.1,1.5,0.3,2.2c0.2,0.699,0.4,1.399,0.8,2c0.4,0.6,0.8,1.1,1.3,1.399
		c0.5,0.4,1.2,0.5,1.9,0.5c0.7,0,1.4-0.2,1.9-0.5c0.6-0.3,1-0.8,1.4-1.399c0.4-0.601,0.7-1.2,0.8-1.9c0.2-0.7,0.3-1.5,0.3-2.2
		C43.5,120.7,43.4,120,43.2,119.2"/>
	<path clip-path="url(#SVGID_2_)" fill="#FFFFFF" d="M66,133.4c-0.2,0.099-0.4,0.099-0.7,0.099c-0.2,0-0.4-0.099-0.6-0.199
		l-5.6-7.399v4.099c0,0.401-0.1,0.801-0.2,1.201c-0.2,0.4-0.4,0.7-0.7,0.9c-0.3,0.3-0.6,0.5-1,0.6c-0.4,0.2-0.8,0.2-1.2,0.2
		s-0.8-0.101-1.2-0.2c-0.4-0.201-0.7-0.4-1-0.701c-0.3-0.299-0.5-0.599-0.7-1c-0.2-0.398-0.3-0.799-0.3-1.199v-19.199
		c0-0.2,0.1-0.4,0.3-0.5c0.2-0.102,0.4-0.2,0.7-0.102h0.5H55h0.9H57h1.7h1.5H61h0.5c1,0.201,2,0.401,2.9,0.801
		c0.9,0.4,1.7,0.801,2.4,1.4c0.7,0.6,1.2,1.299,1.6,2.2c0.4,0.899,0.6,1.899,0.6,3c0,0.8-0.1,1.5-0.4,2.099
		c-0.2,0.602-0.6,1.201-1,1.701s-0.9,0.9-1.5,1.299c-0.6,0.401-1.2,0.602-1.8,0.801l5.2,6.501c0.2,0.198,0.3,0.3,0.2,0.5
		c-0.1,0.198-0.2,0.3-0.4,0.399L66,133.4z M62.5,116.101c-0.3-0.4-0.6-0.602-1.1-0.602h-2.2v3.701h2.3c0.4,0,0.7-0.201,1-0.5
		c0.3-0.4,0.4-0.8,0.4-1.3S62.8,116.4,62.5,116.101"/>
	<path clip-path="url(#SVGID_2_)" fill="#FFFFFF" d="M89.1,120.9c-0.399,0.899-0.899,1.7-1.6,2.399c-0.7,0.7-1.5,1.2-2.4,1.601
		c-0.899,0.399-1.899,0.6-3,0.699c-0.199,0-0.699,0.101-1.3,0.101h-1.7v0.1v1.5c0,0.601,0,1.101-0.1,1.7c0,0.6-0.1,1.1-0.2,1.5
		c-0.1,0.5-0.2,0.8-0.3,1c-0.2,0.4-0.6,0.7-1,1s-0.9,0.4-1.5,0.4c-0.4,0-0.9-0.101-1.2-0.301c-0.399-0.199-0.7-0.399-1-0.699
		c-0.3-0.301-0.5-0.601-0.7-1c-0.199-0.4-0.199-0.801-0.199-1.2v-19.1c0-0.2,0.1-0.301,0.3-0.5c0.2-0.101,0.399-0.2,0.6-0.2H78.4
		c0.899,0,1.899,0,2.8,0.1c0.899,0.101,1.8,0.2,2.7,0.5c1.399,0.3,2.699,1,3.699,2s1.7,2.3,1.9,3.9c0.1,0.399,0.1,0.8,0.1,1.3
		C89.6,119,89.4,120,89.1,120.9 M82.8,116.2c-0.399-0.4-0.8-0.7-1.399-0.7h-2.2v4.7h2.2c0.5,0,1-0.2,1.399-0.7
		c0.4-0.5,0.601-1,0.601-1.6C83.4,117.2,83.2,116.7,82.8,116.2"/>
	<path clip-path="url(#SVGID_2_)" fill="#FFFFFF" d="M111.1,127.4c-0.5,1.2-1.199,2.1-2.1,3c-0.9,0.8-1.9,1.398-3.1,1.898
		c-1.2,0.401-2.5,0.602-3.9,0.602s-2.7-0.2-3.9-0.602c-1.199-0.398-2.3-1-3.1-1.898c-0.8-0.9-1.6-1.8-2.1-3s-0.801-2.5-0.801-4
		v-12.8c0-0.2,0.101-0.302,0.301-0.5C92.6,110,92.8,109.9,93.1,109.9h4.5c0.2,0,0.5,0.1,0.601,0.2c0.2,0.1,0.3,0.3,0.3,0.5V123.5
		c0,1.2,0.3,2.2,1,2.9s1.5,1.1,2.6,1.1c1.101,0,1.9-0.399,2.601-1.1c0.6-0.7,1-1.7,1-2.9v-10.701c0-0.398,0.1-0.799,0.2-1.198
		c0.199-0.4,0.399-0.7,0.699-1c0.301-0.302,0.601-0.5,1-0.7c0.4-0.2,0.801-0.2,1.2-0.2c0.4,0,0.9,0.099,1.2,0.3
		c0.4,0.2,0.7,0.4,1,0.7s0.5,0.599,0.7,1c0.2,0.4,0.2,0.8,0.2,1.2v10.6C111.8,125,111.6,126.299,111.1,127.4"/>
	<path clip-path="url(#SVGID_2_)" fill="#FFFFFF" d="M125.8,119.101c0.9,0.3,1.7,0.8,2.5,1.3s1.4,1.2,1.9,2s0.7,1.7,0.7,2.899
		c0,0.801-0.101,1.5-0.4,2.301c-0.3,0.699-0.6,1.398-1.1,2.1c-0.801,1.101-1.9,2-3.101,2.5s-2.5,0.799-3.899,0.799
		c-0.5,0-1.101-0.099-1.801-0.198c-0.699-0.101-1.399-0.302-2.199-0.5c-0.7-0.2-1.5-0.4-2.101-0.7c-0.7-0.2-1.3-0.5-1.7-0.7
		c-0.199,0-0.3-0.1-0.399-0.3c-0.101-0.2-0.101-0.3-0.101-0.4c0.101-0.5,0.2-1,0.301-1.399c0.1-0.4,0.199-0.7,0.3-1.101
		c0-0.201,0.1-0.3,0.1-0.399c0-0.101,0.101-0.2,0.101-0.302c0-0.099,0.1-0.198,0.1-0.299c0-0.1,0.1-0.201,0.1-0.3v-0.2v0.101V126.2
		c0-0.3,0.101-0.399,0.4-0.6c0.3-0.102,0.6-0.102,0.9,0c0.1,0,0.3,0.1,0.5,0.2c0.199,0.1,0.5,0.198,0.8,0.3c0.3,0.1,0.6,0.2,0.8,0.3
		c0.3,0.099,0.5,0.2,0.7,0.2c0.6,0.2,1.2,0.398,1.7,0.6c0.5,0.2,1.1,0.299,1.5,0.299c0.199,0,0.5-0.099,0.699-0.198
		c0.2-0.101,0.5-0.2,0.601-0.4c0.2-0.2,0.3-0.401,0.5-0.6c0.2-0.2,0.2-0.5,0.2-0.802c0-0.198-0.101-0.398-0.2-0.5
		c-0.101-0.099-0.3-0.299-0.5-0.398c-0.2-0.102-0.4-0.2-0.601-0.3c-0.199-0.101-0.399-0.2-0.5-0.2l-1.5-0.602
		c-0.8-0.299-1.6-0.599-2.3-0.898c-0.8-0.3-1.5-0.7-2.1-1.2c-0.601-0.5-1.101-1.1-1.5-1.8c-0.4-0.7-0.601-1.602-0.601-2.7
		c0-1.1,0.2-2.1,0.7-3c0.5-0.901,1.101-1.6,1.9-2.2c0.8-0.6,1.7-1,2.6-1.399c1-0.302,2-0.5,3-0.5c0.5,0,1.2,0.1,1.9,0.198
		c0.7,0.102,1.5,0.401,2.2,0.701c0.699,0.299,1.3,0.7,1.8,1.2s0.7,1.099,0.7,1.8c0,0.7-0.301,1.299-0.801,1.9
		c-0.5,0.5-1.199,0.8-2,0.8c-0.399,0-0.8-0.1-1.199-0.2c-0.4-0.1-0.7-0.3-1.101-0.399c-0.399-0.101-0.7-0.302-1.1-0.4
		c-0.4-0.1-0.8-0.2-1.2-0.2c-0.3,0-0.6,0.101-0.8,0.299c-0.3,0.201-0.4,0.5-0.4,0.901c0,0.2,0.101,0.4,0.2,0.599
		c0.1,0.201,0.3,0.302,0.4,0.401c0.199,0.099,0.399,0.2,0.6,0.3c0.2,0.101,0.4,0.2,0.6,0.2c0.101,0.099,0.2,0.099,0.301,0.099
		L122.8,117.9h0.101C124,118.4,124.9,118.7,125.8,119.101"/>
	<path clip-path="url(#SVGID_2_)" fill="#D0DD2A" d="M98.9,55.9c-2.4-1.9-4.7-3.8-7-5.8c-1-0.8-1-0.9-0.4-2c1.4-2.5,2.4-5,3-7.8
		c0.9-4.2,0.8-8.4-0.6-12.6c-0.5-1.4-1.101-2.6-1.9-3.8c-0.2-0.4-0.4-0.7,0-1.1c1.1-1.1,2.1-2.3,3.3-3.5c1.7-1.7,3.4-3.4,5-5.2
		c1.7-2,1.3-4.4-0.899-5.7c-0.7-0.4-1.301-0.7-2-1.1c-1.7-0.9-3.5-0.8-5.2-0.1c-1.4,0.6-2.4,1.6-3.4,2.7L82.9,15.6
		c-0.4,0.2-0.5,0.3-0.801,0.3c-0.399,0-0.699-0.1-1.1-0.2C66.299,13.4,58,22,58,22c-0.3,0.4-0.701,0.3-1.1,0
		c-1-0.8-2.101-1.6-3.101-2.4C52.2,18.3,51,18.1,49.2,19.2c-1.1,0.7-1.8,1.8-2.7,2.7c-0.4,0.5-0.8,1-1.1,1.6
		c-0.9,1.5-0.8,3.1,0.399,4.4C46.9,29,48,30,49.101,31.1c0.4,0.4,0.5,0.8,0.199,1.2c-0.399,0.7-0.699,1.4-1,2
		C45.7,40.2,45,46.2,47.101,52.4c0.3,0.9,0.1,1.5-0.5,2.1c-1.801,1.9-3.6,3.5-5,5.5c-1.301,1.7-1.301,3.7-0.1,5.4
		c0.4,0.6,0.9,1.2,1.4,1.8c1.3,1.5,3.399,1.6,4.899,0.2c1.601-1.4,3-3,4.5-4.4c1.801-1.7,1.201-1.7,3.5-0.5
		C59.5,64.3,63.4,64.9,67.4,64.6c4.3-0.4,8.199-1.9,12-4c1.1-0.6,1.199-0.6,2.1,0.3l1.6,1.4c1.5,1.4,3,2.8,4.601,4.1
		c2.1,1.8,5.3,1.9,7.5,0.3c1.5-1.1,2.8-2.3,4.1-3.6C101.3,61,101.3,57.8,98.9,55.9 M77.9,48.6c-5.5,5.7-15.3,7.8-20.4,2.2
		c-5.4-5.8-3.5-13.2,0.4-18.5c3.899-5.3,13.6-11,21.1-5.2C86.1,32.6,83.4,42.9,77.9,48.6"/>
</g>
</svg>
